<svg xmlns="http://www.w3.org/2000/svg" xmlns:xlink="http://www.w3.org/1999/xlink" width="43" height="40.765" viewBox="0 0 43 40.765">
  <defs>
    <linearGradient id="linear-gradient" x1="0.5" y1="1" x2="0.5" gradientUnits="objectBoundingBox">
      <stop offset="0" stop-color="#9f2fff"/>
      <stop offset="1" stop-color="#0bb1d3"/>
    </linearGradient>
  </defs>
  <path id="bath" d="M2.387,27.957H3.1A33.7,33.7,0,0,1,14.358,3.711,10.663,10.663,0,0,1,21.519,1a4.142,4.142,0,0,1,3.234,1.532l1.969,2.486h0c1.268,1.256,1.646,3.168,1.056,5.405A13.866,13.866,0,0,1,23.8,16.7c-2.758,2.615-6,4.038-8.676,4.038a5.841,5.841,0,0,1-2.633-.578A10.131,10.131,0,0,0,11.4,24.716v3.241H12.1a1.354,1.354,0,0,1,1.387,1.315V31.9A1.354,1.354,0,0,1,12.1,33.217H11.4v8.547H3.081V33.217H2.387A1.354,1.354,0,0,1,1,31.9v-2.63A1.354,1.354,0,0,1,2.387,27.957ZM6.548,31.9v-2.63H5.161V31.9Zm1.387-2.63V31.9H9.323v-2.63Zm14.888-13.5A12.569,12.569,0,0,0,26.432,10.1c.477-1.811.209-3.312-.755-4.227a3.833,3.833,0,0,0-2.7-.924c-2.309,0-5.291,1.315-7.733,3.63a12.569,12.569,0,0,0-3.609,5.666c-.477,1.811-.209,3.312.755,4.227,2.055,1.948,6.834.708,10.436-2.706ZM11.366,19.362c-1.289-1.255-1.674-3.179-1.08-5.432a13.866,13.866,0,0,1,3.974-6.277C17.376,4.7,21.109,3.277,23.942,3.7l-.3-.377a2.719,2.719,0,0,0-2.124-1.007,9.242,9.242,0,0,0-6.205,2.349A32.41,32.41,0,0,0,4.486,27.957h5.53V24.716A11.414,11.414,0,0,1,11.366,19.362Zm.73,9.91H10.71V31.9H12.1ZM4.468,40.45h5.548V33.217H4.468ZM3.774,31.9v-2.63H2.387V31.9Zm11.1-14.465a.695.695,0,1,0,.694-.657A.676.676,0,0,0,14.871,17.437ZM12.79,15.465a.695.695,0,1,0,.694-.657A.676.676,0,0,0,12.79,15.465Zm3.468-1.315a.695.695,0,1,0,.694-.657A.676.676,0,0,0,16.258,14.15Zm2.081-1.972a.695.695,0,1,0,.694-.657A.676.676,0,0,0,18.339,12.177Zm0-3.945a.695.695,0,1,0,.694-.657A.676.676,0,0,0,18.339,8.232ZM20.419,10.2a.695.695,0,1,0,.694-.657A.676.676,0,0,0,20.419,10.2ZM22.5,12.177a.695.695,0,1,0,.694-.657A.676.676,0,0,0,22.5,12.177ZM17.645,10.2a.695.695,0,1,0-.694.657A.676.676,0,0,0,17.645,10.2Zm2.774,3.945a.695.695,0,1,0,.694-.657A.676.676,0,0,0,20.419,14.15Zm-6.242-1.972a.695.695,0,1,0,.694-.657A.676.676,0,0,0,14.177,12.177Zm4.161,3.945a.695.695,0,1,0,.694-.657A.676.676,0,0,0,18.339,16.122ZM23.887,10.2a.658.658,0,1,0-.694-.657A.676.676,0,0,0,23.887,10.2ZM21.806,8.232a.658.658,0,1,0-.694-.657A.676.676,0,0,0,21.806,8.232Zm2.774-.657a.658.658,0,1,0-.694-.657A.676.676,0,0,0,24.581,7.575Zm7.139,16.9.981-.93-6.935-6.575-.981.93Zm4.161,5.453a2.526,2.526,0,0,1-2.536-2.037l-.592-3.366,3.55.561a2.472,2.472,0,0,1,2.148,2.4A2.51,2.51,0,0,1,35.881,29.93Zm.195-3.545-1.635-.258.273,1.55a1.19,1.19,0,0,0,2.351-.184A1.138,1.138,0,0,0,36.076,26.385Zm-4.763-12.7-.981.93,6.935,6.575.981-.93ZM44,24.2a2.585,2.585,0,0,1-5.107.4L38.3,21.24l3.55.561A2.472,2.472,0,0,1,44,24.2ZM39.989,22.84l.273,1.55a1.19,1.19,0,0,0,2.352-.185,1.138,1.138,0,0,0-.989-1.107Zm-8.676,5.967-.981.93,6.935,6.575.981-.93ZM44,39.327a2.585,2.585,0,0,1-5.107.4L38.3,36.362l3.55.562A2.472,2.472,0,0,1,44,39.327Zm-4.011-1.365.273,1.55a1.19,1.19,0,0,0,2.352-.185,1.138,1.138,0,0,0-.989-1.107ZM17.442,22.232l-.981.93L23.4,29.737l.981-.93Zm12.687,10.52a2.585,2.585,0,0,1-5.107.4l-.592-3.366,3.55.561a2.472,2.472,0,0,1,2.148,2.4Zm-4.011-1.365.273,1.55a1.19,1.19,0,0,0,2.352-.185,1.138,1.138,0,0,0-.989-1.107Z" transform="translate(-1 -1)" fill="url(#linear-gradient)"/>
</svg>
