<svg xmlns="http://www.w3.org/2000/svg" xmlns:xlink="http://www.w3.org/1999/xlink" width="42.733" height="42.733" viewBox="0 0 42.733 42.733">
  <defs>
    <linearGradient id="linear-gradient" x1="0.5" y1="1" x2="0.5" gradientUnits="objectBoundingBox">
      <stop offset="0" stop-color="#9f2fff"/>
      <stop offset="1" stop-color="#0bb1d3"/>
    </linearGradient>
  </defs>
  <path id="bed" d="M42.355,15.474a2.065,2.065,0,0,0-1.378-1.941V3.068A2.07,2.07,0,0,0,38.909,1H5.825A2.07,2.07,0,0,0,3.757,3.068V13.533a2.065,2.065,0,0,0-1.378,1.941V32.705H1v8.271H3.909L4.6,43.733H8.431l.689-2.757H35.614l.689,2.757h3.834l.689-2.757h2.909V32.705H42.355ZM5.825,2.378H38.909a.69.69,0,0,1,.689.689V13.406H36.134a3.411,3.411,0,0,0,.707-2.068V8.582a3.45,3.45,0,0,0-3.446-3.446H26.5a3.45,3.45,0,0,0-3.446,3.446v2.757a3.411,3.411,0,0,0,.707,2.068H20.971a3.414,3.414,0,0,0,.706-2.068V8.582a3.45,3.45,0,0,0-3.446-3.446H11.339A3.45,3.45,0,0,0,7.892,8.582v2.757A3.411,3.411,0,0,0,8.6,13.406H5.135V3.068A.69.69,0,0,1,5.825,2.378Zm18.61,8.96V8.582A2.07,2.07,0,0,1,26.5,6.514h6.892a2.07,2.07,0,0,1,2.068,2.068v2.757a2.07,2.07,0,0,1-2.068,2.068H26.5A2.07,2.07,0,0,1,24.434,11.339Zm-15.163,0V8.582a2.07,2.07,0,0,1,2.068-2.068h6.892A2.07,2.07,0,0,1,20.3,8.582v2.757a2.07,2.07,0,0,1-2.068,2.068H11.339A2.07,2.07,0,0,1,9.271,11.339ZM4.446,14.785H40.287a.69.69,0,0,1,.689.689v2.093A9.1,9.1,0,0,0,36.5,19.011,7.827,7.827,0,0,1,32.013,20.3a7.827,7.827,0,0,1-4.484-1.288,9.081,9.081,0,0,0-5.168-1.469A9.074,9.074,0,0,0,17.2,19.011,7.813,7.813,0,0,1,12.716,20.3a7.816,7.816,0,0,1-4.482-1.288,9.075,9.075,0,0,0-4.477-1.444V15.474a.69.69,0,0,1,.689-.689Zm-.689,4.16A7.832,7.832,0,0,1,7.55,20.208a9.075,9.075,0,0,0,5.166,1.469,9.074,9.074,0,0,0,5.165-1.469,7.813,7.813,0,0,1,4.481-1.288,7.827,7.827,0,0,1,4.484,1.288,9.081,9.081,0,0,0,5.168,1.469,9.081,9.081,0,0,0,5.168-1.469,7.836,7.836,0,0,1,3.8-1.263v13.76H33.8a5.643,5.643,0,0,0-4.868-2.757H15.8a5.642,5.642,0,0,0-4.868,2.757H3.757Zm8.008,15.139.19-.381A4.274,4.274,0,0,1,15.8,31.327H28.934A4.274,4.274,0,0,1,32.778,33.7l.191.381h9.386v2.757H2.378V34.084ZM7.354,42.355H5.674l-.345-1.378H7.7Zm31.705,0h-1.68l-.345-1.378H39.4ZM2.378,39.6V38.219H42.355V39.6ZM39.6,31.327H38.219V29.948H39.6Zm0-2.757H38.219V27.191H39.6Zm0-2.757H38.219V24.434H39.6ZM5.135,21.677H6.514v1.378H5.135Zm0,2.757H6.514v1.378H5.135Zm0,2.757H6.514V28.57H5.135Z" transform="translate(-1 -1)" fill="url(#linear-gradient)"/>
</svg>
