<svg xmlns="http://www.w3.org/2000/svg" xmlns:xlink="http://www.w3.org/1999/xlink" width="113.8" height="113.8" viewBox="0 0 113.8 113.8">
  <defs>
    <linearGradient id="linear-gradient" x1="0.5" y1="1" x2="0.5" gradientUnits="objectBoundingBox">
      <stop offset="0" stop-color="#9f2fff"/>
      <stop offset="1" stop-color="#0bb1d3"/>
    </linearGradient>
  </defs>
  <path id="business-and-finance" d="M52.394,58.168v-2.1h3.671v2.1a1.569,1.569,0,0,0,1.567,1.568h.536a1.568,1.568,0,0,0,.7-2.972l-3.579-1.788a5.22,5.22,0,0,1,.776-9.658V41.381h3.671v3.937a5.229,5.229,0,0,1,3.671,4.972v2.1H59.736v-2.1a1.569,1.569,0,0,0-1.568-1.568h-.536a1.568,1.568,0,0,0-.7,2.972l3.579,1.788a5.22,5.22,0,0,1-.776,9.658v3.937H56.065V63.14a5.229,5.229,0,0,1-3.671-4.972ZM4.671,111.129H1V114.8H4.671ZM111.129,114.8H114.8v-3.671h-3.671Zm-5.506-80.761H114.8V74.419h-4.256L108,89.687a33.623,33.623,0,0,1-1.947,6.96l-2.263,5.659v8.823h3.671V114.8H8.342v-3.671h3.671v-8.823L9.75,96.647A33.852,33.852,0,0,1,7.8,89.687L5.256,74.419H1V34.039h9.177V30.368H3.537l7.849-15.7a4.806,4.806,0,0,1,8.6,0l7.849,15.7H21.19v3.671H48.723V26.7H46.008a4.626,4.626,0,0,1-3.79-7.28L53.51,3.287a5.36,5.36,0,0,1,8.783,0l11.292,16.13a4.628,4.628,0,0,1-3.792,7.28H67.077v7.342H94.61V30.368H87.969l7.849-15.7a4.806,4.806,0,0,1,8.6,0l7.849,15.7h-6.641ZM98.281,26.7v7.342h3.671V26.7h4.372l-5.193-10.385a1.176,1.176,0,0,0-2.028,0L93.909,26.7Zm.127,44.052a14.7,14.7,0,0,1,12.722-12.722v-7.6A14.7,14.7,0,0,1,98.407,37.708H69.473a20.144,20.144,0,0,1,0,33.041h6.072l.411-5.347a6.136,6.136,0,0,1,12.072-1.017l1.377,5.5c.072.29.163.575.24.863Zm-7.636,3.671a53.98,53.98,0,0,0,2.7,6.476,1.568,1.568,0,0,0,2.97-.7V74.419ZM74.419,86.653q0-1.291.1-2.577l.742-9.656H40.54l.743,9.655q.1,1.289.1,2.579A33.455,33.455,0,0,1,38.974,99.14l-1.265,3.166v8.823H78.09v-8.823l-1.266-3.168A33.474,33.474,0,0,1,74.419,86.653ZM19.355,80.194a1.568,1.568,0,0,0,2.972.7,53.817,53.817,0,0,0,2.7-6.474H19.355ZM33.727,59.736a6.165,6.165,0,0,1,6.12,5.666l.411,5.347h6.072a20.141,20.141,0,0,1,0-33.039H17.393A14.7,14.7,0,0,1,4.671,50.431v7.6a14.7,14.7,0,0,1,12.722,12.72h8.764c.077-.288.169-.573.24-.863l1.377-5.5a6.124,6.124,0,0,1,5.952-4.647Zm7.654-5.506A16.519,16.519,0,1,0,57.9,37.71,16.54,16.54,0,0,0,41.381,54.229Zm11.013-31.2V34.039H63.406V23.026h6.386a.956.956,0,0,0,.956-.956.967.967,0,0,0-.173-.549L59.284,5.39a1.755,1.755,0,0,0-2.768,0L45.224,21.521a.967.967,0,0,0-.173.549.956.956,0,0,0,.956.956ZM13.848,26.7v7.342h3.671V26.7h4.372L16.7,16.312a1.176,1.176,0,0,0-2.028,0L9.476,26.7ZM4.671,37.71v9.012a11.026,11.026,0,0,0,9.012-9.012Zm0,33.039h9.012a11.028,11.028,0,0,0-9.012-9.012Zm6.753,18.335a30.084,30.084,0,0,0,1.735,6.2l1.933,4.833H34.632l.936-2.34A29.834,29.834,0,0,0,37.71,86.653q0-1.151-.088-2.3L36.184,65.682a2.465,2.465,0,0,0-4.849-.407l-1.377,5.5a57.663,57.663,0,0,1-4.35,11.76,5.239,5.239,0,0,1-9.924-2.344V74.419H8.979Zm4.26,22.046H34.039v-7.342H15.684Zm84.432,0v-7.342H81.761v7.342Zm6.705-36.71h-6.705v5.774a5.239,5.239,0,0,1-9.924,2.344,57.6,57.6,0,0,1-4.35-11.76l-1.377-5.5a2.466,2.466,0,0,0-4.851.407L78.177,84.355q-.085,1.148-.086,2.3a29.834,29.834,0,0,0,2.142,11.123l.936,2.34h19.541l1.933-4.833a29.97,29.97,0,0,0,1.735-6.2Zm4.308-3.671V61.736a11.026,11.026,0,0,0-9.012,9.012Zm0-33.039h-9.012a11.026,11.026,0,0,0,9.012,9.012Z" transform="translate(-1 -1)" fill="url(#linear-gradient)"/>
</svg>
