<svg xmlns="http://www.w3.org/2000/svg" width="1181.399" height="776.397" viewBox="0 0 1181.399 776.397">
  <g id="HoneyComb" transform="translate(-23 -262.6)">
    <g id="honeycomb-2" data-name="honeycomb" transform="translate(930 524.598)" opacity="0.01">
      <g id="Group_4" data-name="Group 4" transform="translate(0 0.002)">
        <path id="Path_18" data-name="Path 18" d="M272.364,105.954,233.239,79.871V32.013a4.582,4.582,0,0,0-2.218-3.919L185.288.654a4.582,4.582,0,0,0-4.71,0L137.2,26.68,93.821.654a4.582,4.582,0,0,0-4.71,0L43.378,28.094a4.582,4.582,0,0,0-2.218,3.919V79.872L2.035,105.955A4.579,4.579,0,0,0,0,109.76v54.88a4.568,4.568,0,0,0,2.035,3.805L41.16,194.528v47.857a4.591,4.591,0,0,0,2.218,3.924l45.733,27.44a4.6,4.6,0,0,0,4.711,0L137.2,247.722l43.378,26.027a4.6,4.6,0,0,0,4.711,0l45.733-27.44a4.59,4.59,0,0,0,2.218-3.924V194.527l39.125-26.083a4.568,4.568,0,0,0,2.035-3.805v-54.88A4.581,4.581,0,0,0,272.364,105.954ZM137.2,186.746,103.783,166.7l-7.743-4.646v-49.7l.225-.135L137.2,87.656l40.935,24.561.225.135v49.7l-7.743,4.646ZM182.932,9.906l41.16,24.7V79.731l-41.16,24.7-41.16-24.7V34.606ZM50.307,34.606l41.16-24.7,41.16,24.7V79.731l-41.16,24.7-41.16-24.7V34.606Zm-41.16,77.6L45.859,87.732l30.586,18.351,10.448,6.27v49.7L47.008,185.982l-1.146.688L9.147,162.193V112.207Zm82.32,152.286-41.16-24.7V194.673l41.16-24.7,41.159,24.7V239.8Zm91.466,0-41.16-24.7V194.672l41.16-24.7,41.16,24.7V239.8Zm82.32-102.3-36.715,24.476L187.771,162.21l-.265-.159v-49.7l41.032-24.618,36.715,24.476Z" transform="translate(0 -0.002)"/>
      </g>
    </g>
    <g id="Group_5" data-name="Group 5">
      <g id="honeycomb-3" data-name="honeycomb" transform="translate(23 425.598)" opacity="0.01">
        <g id="Group_4-2" data-name="Group 4" transform="translate(0 0.002)">
          <path id="Path_18-2" data-name="Path 18" d="M272.364,105.954,233.239,79.871V32.013a4.582,4.582,0,0,0-2.218-3.919L185.288.654a4.582,4.582,0,0,0-4.71,0L137.2,26.68,93.821.654a4.582,4.582,0,0,0-4.71,0L43.378,28.094a4.582,4.582,0,0,0-2.218,3.919V79.872L2.035,105.955A4.579,4.579,0,0,0,0,109.76v54.88a4.568,4.568,0,0,0,2.035,3.805L41.16,194.528v47.857a4.591,4.591,0,0,0,2.218,3.924l45.733,27.44a4.6,4.6,0,0,0,4.711,0L137.2,247.722l43.378,26.027a4.6,4.6,0,0,0,4.711,0l45.733-27.44a4.59,4.59,0,0,0,2.218-3.924V194.527l39.125-26.083a4.568,4.568,0,0,0,2.035-3.805v-54.88A4.581,4.581,0,0,0,272.364,105.954ZM137.2,186.746,103.783,166.7l-7.743-4.646v-49.7l.225-.135L137.2,87.656l40.935,24.561.225.135v49.7l-7.743,4.646ZM182.932,9.906l41.16,24.7V79.731l-41.16,24.7-41.16-24.7V34.606ZM50.307,34.606l41.16-24.7,41.16,24.7V79.731l-41.16,24.7-41.16-24.7V34.606Zm-41.16,77.6L45.859,87.732l30.586,18.351,10.448,6.27v49.7L47.008,185.982l-1.146.688L9.147,162.193V112.207Zm82.32,152.286-41.16-24.7V194.673l41.16-24.7,41.159,24.7V239.8Zm91.466,0-41.16-24.7V194.672l41.16-24.7,41.16,24.7V239.8Zm82.32-102.3-36.715,24.476L187.771,162.21l-.265-.159v-49.7l41.032-24.618,36.715,24.476Z" transform="translate(0 -0.002)"/>
        </g>
      </g>
      <g id="honeycomb-4" data-name="honeycomb" transform="translate(260 515.598)" opacity="0.01">
        <g id="Group_4-3" data-name="Group 4" transform="translate(0 0.002)">
          <path id="Path_18-3" data-name="Path 18" d="M272.364,105.954,233.239,79.871V32.013a4.582,4.582,0,0,0-2.218-3.919L185.288.654a4.582,4.582,0,0,0-4.71,0L137.2,26.68,93.821.654a4.582,4.582,0,0,0-4.71,0L43.378,28.094a4.582,4.582,0,0,0-2.218,3.919V79.872L2.035,105.955A4.579,4.579,0,0,0,0,109.76v54.88a4.568,4.568,0,0,0,2.035,3.805L41.16,194.528v47.857a4.591,4.591,0,0,0,2.218,3.924l45.733,27.44a4.6,4.6,0,0,0,4.711,0L137.2,247.722l43.378,26.027a4.6,4.6,0,0,0,4.711,0l45.733-27.44a4.59,4.59,0,0,0,2.218-3.924V194.527l39.125-26.083a4.568,4.568,0,0,0,2.035-3.805v-54.88A4.581,4.581,0,0,0,272.364,105.954ZM137.2,186.746,103.783,166.7l-7.743-4.646v-49.7l.225-.135L137.2,87.656l40.935,24.561.225.135v49.7l-7.743,4.646ZM182.932,9.906l41.16,24.7V79.731l-41.16,24.7-41.16-24.7V34.606ZM50.307,34.606l41.16-24.7,41.16,24.7V79.731l-41.16,24.7-41.16-24.7V34.606Zm-41.16,77.6L45.859,87.732l30.586,18.351,10.448,6.27v49.7L47.008,185.982l-1.146.688L9.147,162.193V112.207Zm82.32,152.286-41.16-24.7V194.673l41.16-24.7,41.159,24.7V239.8Zm91.466,0-41.16-24.7V194.672l41.16-24.7,41.16,24.7V239.8Zm82.32-102.3-36.715,24.476L187.771,162.21l-.265-.159v-49.7l41.032-24.618,36.715,24.476Z" transform="translate(0 -0.002)"/>
        </g>
      </g>
      <g id="honeycomb-5" data-name="honeycomb" transform="translate(220 262.598)" opacity="0.01">
        <g id="Group_4-4" data-name="Group 4" transform="translate(0 0.002)">
          <path id="Path_18-4" data-name="Path 18" d="M272.364,105.954,233.239,79.871V32.013a4.582,4.582,0,0,0-2.218-3.919L185.288.654a4.582,4.582,0,0,0-4.71,0L137.2,26.68,93.821.654a4.582,4.582,0,0,0-4.71,0L43.378,28.094a4.582,4.582,0,0,0-2.218,3.919V79.872L2.035,105.955A4.579,4.579,0,0,0,0,109.76v54.88a4.568,4.568,0,0,0,2.035,3.805L41.16,194.528v47.857a4.591,4.591,0,0,0,2.218,3.924l45.733,27.44a4.6,4.6,0,0,0,4.711,0L137.2,247.722l43.378,26.027a4.6,4.6,0,0,0,4.711,0l45.733-27.44a4.59,4.59,0,0,0,2.218-3.924V194.527l39.125-26.083a4.568,4.568,0,0,0,2.035-3.805v-54.88A4.581,4.581,0,0,0,272.364,105.954ZM137.2,186.746,103.783,166.7l-7.743-4.646v-49.7l.225-.135L137.2,87.656l40.935,24.561.225.135v49.7l-7.743,4.646ZM182.932,9.906l41.16,24.7V79.731l-41.16,24.7-41.16-24.7V34.606ZM50.307,34.606l41.16-24.7,41.16,24.7V79.731l-41.16,24.7-41.16-24.7V34.606Zm-41.16,77.6L45.859,87.732l30.586,18.351,10.448,6.27v49.7L47.008,185.982l-1.146.688L9.147,162.193V112.207Zm82.32,152.286-41.16-24.7V194.673l41.16-24.7,41.159,24.7V239.8Zm91.466,0-41.16-24.7V194.672l41.16-24.7,41.16,24.7V239.8Zm82.32-102.3-36.715,24.476L187.771,162.21l-.265-.159v-49.7l41.032-24.618,36.715,24.476Z" transform="translate(0 -0.002)"/>
        </g>
      </g>
    </g>
    <g id="Group_6" data-name="Group 6" transform="translate(475 174)">
      <g id="honeycomb-6" data-name="honeycomb" transform="translate(23 425.598)" opacity="0.01">
        <g id="Group_4-5" data-name="Group 4" transform="translate(0 0.002)">
          <path id="Path_18-5" data-name="Path 18" d="M272.364,105.954,233.239,79.871V32.013a4.582,4.582,0,0,0-2.218-3.919L185.288.654a4.582,4.582,0,0,0-4.71,0L137.2,26.68,93.821.654a4.582,4.582,0,0,0-4.71,0L43.378,28.094a4.582,4.582,0,0,0-2.218,3.919V79.872L2.035,105.955A4.579,4.579,0,0,0,0,109.76v54.88a4.568,4.568,0,0,0,2.035,3.805L41.16,194.528v47.857a4.591,4.591,0,0,0,2.218,3.924l45.733,27.44a4.6,4.6,0,0,0,4.711,0L137.2,247.722l43.378,26.027a4.6,4.6,0,0,0,4.711,0l45.733-27.44a4.59,4.59,0,0,0,2.218-3.924V194.527l39.125-26.083a4.568,4.568,0,0,0,2.035-3.805v-54.88A4.581,4.581,0,0,0,272.364,105.954ZM137.2,186.746,103.783,166.7l-7.743-4.646v-49.7l.225-.135L137.2,87.656l40.935,24.561.225.135v49.7l-7.743,4.646ZM182.932,9.906l41.16,24.7V79.731l-41.16,24.7-41.16-24.7V34.606ZM50.307,34.606l41.16-24.7,41.16,24.7V79.731l-41.16,24.7-41.16-24.7V34.606Zm-41.16,77.6L45.859,87.732l30.586,18.351,10.448,6.27v49.7L47.008,185.982l-1.146.688L9.147,162.193V112.207Zm82.32,152.286-41.16-24.7V194.673l41.16-24.7,41.159,24.7V239.8Zm91.466,0-41.16-24.7V194.672l41.16-24.7,41.16,24.7V239.8Zm82.32-102.3-36.715,24.476L187.771,162.21l-.265-.159v-49.7l41.032-24.618,36.715,24.476Z" transform="translate(0 -0.002)"/>
        </g>
      </g>
      <g id="honeycomb-7" data-name="honeycomb" transform="translate(260 515.598)" opacity="0.01">
        <g id="Group_4-6" data-name="Group 4" transform="translate(0 0.002)">
          <path id="Path_18-6" data-name="Path 18" d="M272.364,105.954,233.239,79.871V32.013a4.582,4.582,0,0,0-2.218-3.919L185.288.654a4.582,4.582,0,0,0-4.71,0L137.2,26.68,93.821.654a4.582,4.582,0,0,0-4.71,0L43.378,28.094a4.582,4.582,0,0,0-2.218,3.919V79.872L2.035,105.955A4.579,4.579,0,0,0,0,109.76v54.88a4.568,4.568,0,0,0,2.035,3.805L41.16,194.528v47.857a4.591,4.591,0,0,0,2.218,3.924l45.733,27.44a4.6,4.6,0,0,0,4.711,0L137.2,247.722l43.378,26.027a4.6,4.6,0,0,0,4.711,0l45.733-27.44a4.59,4.59,0,0,0,2.218-3.924V194.527l39.125-26.083a4.568,4.568,0,0,0,2.035-3.805v-54.88A4.581,4.581,0,0,0,272.364,105.954ZM137.2,186.746,103.783,166.7l-7.743-4.646v-49.7l.225-.135L137.2,87.656l40.935,24.561.225.135v49.7l-7.743,4.646ZM182.932,9.906l41.16,24.7V79.731l-41.16,24.7-41.16-24.7V34.606ZM50.307,34.606l41.16-24.7,41.16,24.7V79.731l-41.16,24.7-41.16-24.7V34.606Zm-41.16,77.6L45.859,87.732l30.586,18.351,10.448,6.27v49.7L47.008,185.982l-1.146.688L9.147,162.193V112.207Zm82.32,152.286-41.16-24.7V194.673l41.16-24.7,41.159,24.7V239.8Zm91.466,0-41.16-24.7V194.672l41.16-24.7,41.16,24.7V239.8Zm82.32-102.3-36.715,24.476L187.771,162.21l-.265-.159v-49.7l41.032-24.618,36.715,24.476Z" transform="translate(0 -0.002)"/>
        </g>
      </g>
      <g id="honeycomb-8" data-name="honeycomb" transform="translate(220 262.598)" opacity="0.01">
        <g id="Group_4-7" data-name="Group 4" transform="translate(0 0.002)">
          <path id="Path_18-7" data-name="Path 18" d="M272.364,105.954,233.239,79.871V32.013a4.582,4.582,0,0,0-2.218-3.919L185.288.654a4.582,4.582,0,0,0-4.71,0L137.2,26.68,93.821.654a4.582,4.582,0,0,0-4.71,0L43.378,28.094a4.582,4.582,0,0,0-2.218,3.919V79.872L2.035,105.955A4.579,4.579,0,0,0,0,109.76v54.88a4.568,4.568,0,0,0,2.035,3.805L41.16,194.528v47.857a4.591,4.591,0,0,0,2.218,3.924l45.733,27.44a4.6,4.6,0,0,0,4.711,0L137.2,247.722l43.378,26.027a4.6,4.6,0,0,0,4.711,0l45.733-27.44a4.59,4.59,0,0,0,2.218-3.924V194.527l39.125-26.083a4.568,4.568,0,0,0,2.035-3.805v-54.88A4.581,4.581,0,0,0,272.364,105.954ZM137.2,186.746,103.783,166.7l-7.743-4.646v-49.7l.225-.135L137.2,87.656l40.935,24.561.225.135v49.7l-7.743,4.646ZM182.932,9.906l41.16,24.7V79.731l-41.16,24.7-41.16-24.7V34.606ZM50.307,34.606l41.16-24.7,41.16,24.7V79.731l-41.16,24.7-41.16-24.7V34.606Zm-41.16,77.6L45.859,87.732l30.586,18.351,10.448,6.27v49.7L47.008,185.982l-1.146.688L9.147,162.193V112.207Zm82.32,152.286-41.16-24.7V194.673l41.16-24.7,41.159,24.7V239.8Zm91.466,0-41.16-24.7V194.672l41.16-24.7,41.16,24.7V239.8Zm82.32-102.3-36.715,24.476L187.771,162.21l-.265-.159v-49.7l41.032-24.618,36.715,24.476Z" transform="translate(0 -0.002)"/>
        </g>
      </g>
    </g>
    <g id="honeycomb-9" data-name="honeycomb" transform="translate(458 346.598)" opacity="0.01">
      <g id="Group_4-8" data-name="Group 4" transform="translate(0 0.002)">
        <path id="Path_18-8" data-name="Path 18" d="M272.364,105.954,233.239,79.871V32.013a4.582,4.582,0,0,0-2.218-3.919L185.288.654a4.582,4.582,0,0,0-4.71,0L137.2,26.68,93.821.654a4.582,4.582,0,0,0-4.71,0L43.378,28.094a4.582,4.582,0,0,0-2.218,3.919V79.872L2.035,105.955A4.579,4.579,0,0,0,0,109.76v54.88a4.568,4.568,0,0,0,2.035,3.805L41.16,194.528v47.857a4.591,4.591,0,0,0,2.218,3.924l45.733,27.44a4.6,4.6,0,0,0,4.711,0L137.2,247.722l43.378,26.027a4.6,4.6,0,0,0,4.711,0l45.733-27.44a4.59,4.59,0,0,0,2.218-3.924V194.527l39.125-26.083a4.568,4.568,0,0,0,2.035-3.805v-54.88A4.581,4.581,0,0,0,272.364,105.954ZM137.2,186.746,103.783,166.7l-7.743-4.646v-49.7l.225-.135L137.2,87.656l40.935,24.561.225.135v49.7l-7.743,4.646ZM182.932,9.906l41.16,24.7V79.731l-41.16,24.7-41.16-24.7V34.606ZM50.307,34.606l41.16-24.7,41.16,24.7V79.731l-41.16,24.7-41.16-24.7V34.606Zm-41.16,77.6L45.859,87.732l30.586,18.351,10.448,6.27v49.7L47.008,185.982l-1.146.688L9.147,162.193V112.207Zm82.32,152.286-41.16-24.7V194.673l41.16-24.7,41.159,24.7V239.8Zm91.466,0-41.16-24.7V194.672l41.16-24.7,41.16,24.7V239.8Zm82.32-102.3-36.715,24.476L187.771,162.21l-.265-.159v-49.7l41.032-24.618,36.715,24.476Z" transform="translate(0 -0.002)"/>
      </g>
    </g>
    <g id="honeycomb-10" data-name="honeycomb" transform="translate(305 764.598)" opacity="0.01">
      <g id="Group_4-9" data-name="Group 4" transform="translate(0 0.002)">
        <path id="Path_18-9" data-name="Path 18" d="M272.364,105.954,233.239,79.871V32.013a4.582,4.582,0,0,0-2.218-3.919L185.288.654a4.582,4.582,0,0,0-4.71,0L137.2,26.68,93.821.654a4.582,4.582,0,0,0-4.71,0L43.378,28.094a4.582,4.582,0,0,0-2.218,3.919V79.872L2.035,105.955A4.579,4.579,0,0,0,0,109.76v54.88a4.568,4.568,0,0,0,2.035,3.805L41.16,194.528v47.857a4.591,4.591,0,0,0,2.218,3.924l45.733,27.44a4.6,4.6,0,0,0,4.711,0L137.2,247.722l43.378,26.027a4.6,4.6,0,0,0,4.711,0l45.733-27.44a4.59,4.59,0,0,0,2.218-3.924V194.527l39.125-26.083a4.568,4.568,0,0,0,2.035-3.805v-54.88A4.581,4.581,0,0,0,272.364,105.954ZM137.2,186.746,103.783,166.7l-7.743-4.646v-49.7l.225-.135L137.2,87.656l40.935,24.561.225.135v49.7l-7.743,4.646ZM182.932,9.906l41.16,24.7V79.731l-41.16,24.7-41.16-24.7V34.606ZM50.307,34.606l41.16-24.7,41.16,24.7V79.731l-41.16,24.7-41.16-24.7V34.606Zm-41.16,77.6L45.859,87.732l30.586,18.351,10.448,6.27v49.7L47.008,185.982l-1.146.688L9.147,162.193V112.207Zm82.32,152.286-41.16-24.7V194.673l41.16-24.7,41.159,24.7V239.8Zm91.466,0-41.16-24.7V194.672l41.16-24.7,41.16,24.7V239.8Zm82.32-102.3-36.715,24.476L187.771,162.21l-.265-.159v-49.7l41.032-24.618,36.715,24.476Z" transform="translate(0 -0.002)"/>
      </g>
    </g>
    <g id="honeycomb-11" data-name="honeycomb" transform="translate(66 679.598)" opacity="0.01">
      <g id="Group_4-10" data-name="Group 4" transform="translate(0 0.002)">
        <path id="Path_18-10" data-name="Path 18" d="M272.364,105.954,233.239,79.871V32.013a4.582,4.582,0,0,0-2.218-3.919L185.288.654a4.582,4.582,0,0,0-4.71,0L137.2,26.68,93.821.654a4.582,4.582,0,0,0-4.71,0L43.378,28.094a4.582,4.582,0,0,0-2.218,3.919V79.872L2.035,105.955A4.579,4.579,0,0,0,0,109.76v54.88a4.568,4.568,0,0,0,2.035,3.805L41.16,194.528v47.857a4.591,4.591,0,0,0,2.218,3.924l45.733,27.44a4.6,4.6,0,0,0,4.711,0L137.2,247.722l43.378,26.027a4.6,4.6,0,0,0,4.711,0l45.733-27.44a4.59,4.59,0,0,0,2.218-3.924V194.527l39.125-26.083a4.568,4.568,0,0,0,2.035-3.805v-54.88A4.581,4.581,0,0,0,272.364,105.954ZM137.2,186.746,103.783,166.7l-7.743-4.646v-49.7l.225-.135L137.2,87.656l40.935,24.561.225.135v49.7l-7.743,4.646ZM182.932,9.906l41.16,24.7V79.731l-41.16,24.7-41.16-24.7V34.606ZM50.307,34.606l41.16-24.7,41.16,24.7V79.731l-41.16,24.7-41.16-24.7V34.606Zm-41.16,77.6L45.859,87.732l30.586,18.351,10.448,6.27v49.7L47.008,185.982l-1.146.688L9.147,162.193V112.207Zm82.32,152.286-41.16-24.7V194.673l41.16-24.7,41.159,24.7V239.8Zm91.466,0-41.16-24.7V194.672l41.16-24.7,41.16,24.7V239.8Zm82.32-102.3-36.715,24.476L187.771,162.21l-.265-.159v-49.7l41.032-24.618,36.715,24.476Z" transform="translate(0 -0.002)"/>
      </g>
    </g>
  </g>
</svg>
