<svg xmlns="http://www.w3.org/2000/svg" xmlns:xlink="http://www.w3.org/1999/xlink" width="102" height="102" viewBox="0 0 102 102">
  <defs>
    <linearGradient id="linear-gradient" x1="0.5" y1="1" x2="0.5" gradientUnits="objectBoundingBox">
      <stop offset="0" stop-color="#9f2fff"/>
      <stop offset="1" stop-color="#0bb1d3"/>
    </linearGradient>
  </defs>
  <path id="invest" d="M88.194,53.645V12.516H79.287L59.545,32.258H31.338l-10.6,17.22V1h-3.29V7.581H10.871v3.29h6.581v6.581H10.871v3.29h6.581v6.581H10.871v3.29h6.581v6.581H10.871v3.29h6.581v6.581H10.871v3.29h6.581v3.29H1V103H103V53.645Zm-3.29,0h-3.29V15.806H84.9ZM61.871,49.139V34.584l3.29-3.29V50.9A24.649,24.649,0,0,0,61.871,49.139Zm-3.29-1.157a24.7,24.7,0,0,0-3.29-.673V35.548h3.29ZM52,47.065a24.66,24.66,0,0,0-3.29.245V35.548H52Zm-6.581.918a24.649,24.649,0,0,0-3.29,1.157V35.548h3.29ZM38.839,50.9a24.7,24.7,0,0,0-3.29,2.5V35.548h3.29ZM52,50.355A21.387,21.387,0,1,1,30.613,71.742,21.412,21.412,0,0,1,52,50.355Zm16.721,3.29c-.089-.082-.179-.163-.27-.245V28l3.29-3.29V53.645Zm6.311-32.222,3.29-3.29V53.645h-3.29ZM32.258,37.042v16.6h-3.29V42.389ZM22.04,53.645l3.637-5.909v5.909ZM99.71,99.71H4.29V56.935H32.3a24.677,24.677,0,1,0,39.392,0H99.71ZM10.871,68.452H7.581V60.226h8.226v3.29H10.871Zm0,24.677h4.935v3.29H7.581V88.194h3.29ZM93.129,63.516H88.194v-3.29h8.226v8.226h-3.29Zm0,24.677h3.29v8.226H88.194v-3.29h4.935ZM53.645,75.032A1.647,1.647,0,0,0,52,73.387a4.924,4.924,0,0,1-1.645-9.568V61.871h3.29v1.948a4.929,4.929,0,0,1,3.29,4.633h-3.29A1.645,1.645,0,1,0,52,70.1a4.924,4.924,0,0,1,1.645,9.568v1.948h-3.29V79.665a4.929,4.929,0,0,1-3.29-4.633h3.29a1.645,1.645,0,0,0,3.29,0ZM52,89.839a18.1,18.1,0,1,0-18.1-18.1A18.118,18.118,0,0,0,52,89.839Zm0-32.9A14.806,14.806,0,1,1,37.194,71.742,14.823,14.823,0,0,1,52,56.935Zm5.617-27.968H24.032v-3.29H56.254L77.641,4.29H75.032V1h8.226V9.226h-3.29V6.617Zm35.512,47.71h3.29v3.29h-3.29Zm-3.29,3.29h-3.29v-3.29h3.29Zm-6.581,0h-3.29v-3.29h3.29Zm-62.516-3.29h3.29v3.29h-3.29Zm-6.581,0h3.29v3.29h-3.29Zm-3.29,3.29H7.581v-3.29h3.29Z" transform="translate(-1 -1)" fill="url(#linear-gradient)"/>
</svg>
