<svg xmlns="http://www.w3.org/2000/svg" xmlns:xlink="http://www.w3.org/1999/xlink" width="118.6" height="118.6" viewBox="0 0 118.6 118.6">
  <defs>
    <linearGradient id="linear-gradient" x1="0.5" y1="1" x2="0.5" gradientUnits="objectBoundingBox">
      <stop offset="0" stop-color="#9f2fff"/>
      <stop offset="1" stop-color="#0bb1d3"/>
    </linearGradient>
  </defs>
  <path id="rent" d="M14.39,73.69H8.652V92.819h3.826V85.168H14.39A1.914,1.914,0,0,1,16.3,87.081v5.739h3.826V87.081a5.7,5.7,0,0,0-1.492-3.826A5.714,5.714,0,0,0,14.39,73.69Zm-1.913,7.652V77.516H14.39a1.913,1.913,0,1,1,0,3.826ZM23.955,73.69h7.652v3.826H27.781v3.826h3.826v3.826H27.781v3.826h3.826v3.826H23.955Zm19.129,0H46.91V92.819H41.59L39.258,83.49v9.329H35.432V73.69h5.32l2.332,9.329Zm7.652,0H62.213v3.826H58.387v15.3H54.561v-15.3H50.735ZM90.419,9.738a14.749,14.749,0,0,0-21.979,0l-2.45,2.739H46.91V4.826h3.826V1H27.781V4.826h3.826v7.652H24.72L8.652,42.606v4.3h3.826V66.039H6.739A5.746,5.746,0,0,0,1,71.777V94.732a5.746,5.746,0,0,0,5.739,5.739H8.652V119.6H20.129V100.471H50.735V119.6H62.213V100.471h1.913a5.746,5.746,0,0,0,5.739-5.739V92.819h38.258V47.4l1.217,1.368a5.871,5.871,0,0,0,10.261-3.9V44.6a5.866,5.866,0,0,0-1.5-3.918ZM35.432,4.826h7.652v7.652H35.432ZM27.015,16.3H62.567L40.754,40.679a5.842,5.842,0,0,0-1.274,2.4H12.734ZM16.3,46.91H39.646a5.853,5.853,0,0,0,9.872,1.854L50.735,47.4V66.039H16.3Zm0,68.865H12.477v-15.3H16.3Zm42.084,0H54.561v-15.3h3.826Zm7.652-21.042a1.914,1.914,0,0,1-1.913,1.913H6.739a1.914,1.914,0,0,1-1.913-1.913V71.777a1.914,1.914,0,0,1,1.913-1.913H64.126a1.914,1.914,0,0,1,1.913,1.913Zm2.38-26.723a13.379,13.379,0,0,1,24.4,7.594v13.39H69.864V71.777A5.684,5.684,0,0,0,68.418,68.009ZM96.645,88.994V75.6a17.191,17.191,0,0,0-31.557-9.467,5.716,5.716,0,0,0-.962-.1H54.561v-15.3H104.3V88.994ZM104.3,46.91H54.561V43.092l23.114-26a2.432,2.432,0,0,1,3.508,0l23.114,26Zm11.477-2.047a2.046,2.046,0,0,1-3.575,1.36L84.041,14.549a6.17,6.17,0,0,0-9.224,0L46.659,46.223a2.046,2.046,0,0,1-3.575-1.36V44.6a2.05,2.05,0,0,1,.52-1.366L71.29,12.29a10.924,10.924,0,0,1,16.279,0l27.685,30.941a2.05,2.05,0,0,1,.52,1.366ZM69.864,33.519a9.565,9.565,0,1,0,9.565-9.565A9.575,9.575,0,0,0,69.864,33.519Zm15.3,0a5.739,5.739,0,1,1-5.739-5.739A5.746,5.746,0,0,1,85.168,33.519ZM20.129,58.387h3.826v3.826H20.129Zm7.652,0h3.826v3.826H27.781Zm7.652,0h3.826v3.826H35.432Z" transform="translate(-1 -1)" fill="url(#linear-gradient)"/>
</svg>
