<svg xmlns="http://www.w3.org/2000/svg" xmlns:xlink="http://www.w3.org/1999/xlink" width="40.733" height="40.732" viewBox="0 0 40.733 40.732">
  <defs>
    <linearGradient id="linear-gradient" x1="0.5" y1="1" x2="0.5" gradientUnits="objectBoundingBox">
      <stop offset="0" stop-color="#9f2fff"/>
      <stop offset="1" stop-color="#0bb1d3"/>
    </linearGradient>
  </defs>
  <path id="size" d="M20.366,11.826A2.628,2.628,0,1,0,17.738,9.2,2.631,2.631,0,0,0,20.366,11.826Zm0-3.942A1.314,1.314,0,1,1,19.052,9.2,1.315,1.315,0,0,1,20.366,7.884ZM37.448,25.622V24.309a1.315,1.315,0,0,0-1.314-1.314H34.82V18.4a1.973,1.973,0,0,0-1.971-1.971H31.535A1.973,1.973,0,0,0,29.564,18.4v3.76L24.04,12.949a5.242,5.242,0,0,0-1.046-8.3V1.971A1.973,1.973,0,0,0,21.023,0H19.709a1.973,1.973,0,0,0-1.971,1.971V4.653a5.24,5.24,0,0,0-1.005,8.334L10.11,25.631A2.231,2.231,0,0,0,11.169,28.7v2.177h1.314V28.884a2.223,2.223,0,0,0,1.682-1.215l2.995-5.989h7l.851,1.474a1.31,1.31,0,0,0-.7,1.154v1.314a1.315,1.315,0,0,0,1.314,1.314h3.942v1.586l2.628,2.628,2.628-2.628V26.936h1.314a1.315,1.315,0,0,0,1.314-1.314Zm-6.57-2.628V20.367h2.628v2.628Zm.657-5.256h1.314a.658.658,0,0,1,.657.657v.657H30.878V18.4A.658.658,0,0,1,31.535,17.739Zm-3,5.256h-2.1L21.44,14.343a5.215,5.215,0,0,0,1.547-.6ZM19.13,17.739l1.278-2.556,1.474,2.556ZM19.052,1.971a.658.658,0,0,1,.657-.657h1.314a.658.658,0,0,1,.657.657V4.115a5.079,5.079,0,0,0-2.628,0ZM16.424,9.2a3.942,3.942,0,1,1,3.942,3.942A3.946,3.946,0,0,1,16.424,9.2ZM12.989,27.082a.919.919,0,0,1-.827.511h-.068a.924.924,0,0,1-.819-1.353L17.8,13.78a5.234,5.234,0,0,0,1.553.574Zm5.484-8.03h1.236v1.314H17.816Zm2.55,1.314V19.053H22.64l.758,1.314Zm4.6,3.942H36.134v1.314H25.622Zm7.884,3.67-1.314,1.314-1.314-1.314V26.936h2.628ZM8.553,33.6l.875-.98a16.426,16.426,0,0,0,21.9-.018l.877.977A17.739,17.739,0,0,1,8.553,33.6Zm24.526.958.877.979A20.368,20.368,0,0,1,6.8,35.559l.875-.98a19.053,19.053,0,0,0,25.4-.021ZM15.681,1.5a.657.657,0,1,1,.828.422.657.657,0,0,1-.828-.422Zm-3.57,2.049a.657.657,0,1,1,.918.145.657.657,0,0,1-.918-.145ZM9.35,6.605a.657.657,0,1,1,.918-.145.657.657,0,0,1-.918.145ZM8.495,9.94a.657.657,0,1,1-.422-.828A.657.657,0,0,1,8.495,9.94ZM7.227,14.454a.657.657,0,1,1,.657-.657A.657.657,0,0,1,7.227,14.454Zm1.268,3.2a.657.657,0,1,1-.828-.422A.657.657,0,0,1,8.495,17.654Zm.855,3.335a.657.657,0,1,1-.145.918.657.657,0,0,1,.145-.918ZM24.223,1.925a.657.657,0,1,1,.828-.422.657.657,0,0,1-.828.422ZM27.7,3.7a.657.657,0,1,1,.918-.145A.657.657,0,0,1,27.7,3.7ZM30.465,6.46a.657.657,0,1,1,.918.145.657.657,0,0,1-.918-.145Zm3.023,3.074a.657.657,0,1,1-.828-.422A.657.657,0,0,1,33.488,9.534Zm.018,3.606a.657.657,0,1,1-.657.657A.657.657,0,0,1,33.506,13.14ZM1.314,19.71v1.314H0V19.71Zm1.314,1.314V19.71H3.942v1.314Zm0-1.314H1.314V18.4H2.628ZM1.314,22.338V21.024H2.628v1.314ZM38.1,34.163v1.314H36.791V34.163Zm1.314,0h1.314v1.314H39.419Zm0,0H38.1V32.849h1.314ZM38.1,35.477h1.314v1.314H38.1ZM3.942,28.907v1.314H2.628V28.907Zm1.314,0H6.57v1.314H5.256Zm0,0H3.942V27.593H5.256ZM3.942,30.221H5.256v1.314H3.942Zm0-27.593V3.942H2.628V2.628ZM5.256,3.942V2.628H6.57V3.942Zm0-2.628V2.628H3.942V1.314ZM3.942,3.942H5.256V5.256H3.942ZM36.791,2.628V3.942H35.477V2.628ZM38.1,3.942V2.628h1.314V3.942Zm0-2.628V2.628H36.791V1.314ZM36.791,3.942H38.1V5.256H36.791Zm0,0" transform="translate(0 0)" fill="url(#linear-gradient)"/>
</svg>
